<svg width="27" height="26" viewBox="0 0 27 26" fill="none" xmlns="http://www.w3.org/2000/svg">
<path d="M8.07492 0.5H18.9249C23.0583 0.5 26.4166 3.75 26.4166 7.75V18.25C26.4166 20.1728 25.6273 22.0169 24.2223 23.3765C22.8174 24.7362 20.9118 25.5 18.9249 25.5H8.07492C3.94159 25.5 0.583252 22.25 0.583252 18.25V7.75C0.583252 5.82718 1.37255 3.98311 2.77751 2.62348C4.18247 1.26384 6.08801 0.5 8.07492 0.5ZM7.81659 3C6.58333 3 5.40058 3.47411 4.52854 4.31802C3.65649 5.16193 3.16659 6.30653 3.16659 7.5V18.5C3.16659 20.9875 5.24617 23 7.81659 23H19.1833C20.4165 23 21.5993 22.5259 22.4713 21.682C23.3433 20.8381 23.8333 19.6935 23.8333 18.5V7.5C23.8333 5.0125 21.7537 3 19.1833 3H7.81659ZM20.2812 4.875C20.7094 4.875 21.1201 5.03962 21.4229 5.33265C21.7256 5.62567 21.8958 6.0231 21.8958 6.4375C21.8958 6.8519 21.7256 7.24933 21.4229 7.54235C21.1201 7.83538 20.7094 8 20.2812 8C19.853 8 19.4423 7.83538 19.1395 7.54235C18.8367 7.24933 18.6666 6.8519 18.6666 6.4375C18.6666 6.0231 18.8367 5.62567 19.1395 5.33265C19.4423 5.03962 19.853 4.875 20.2812 4.875ZM13.4999 6.75C15.2128 6.75 16.8555 7.40848 18.0667 8.58058C19.2778 9.75268 19.9583 11.3424 19.9583 13C19.9583 14.6576 19.2778 16.2473 18.0667 17.4194C16.8555 18.5915 15.2128 19.25 13.4999 19.25C11.7871 19.25 10.1444 18.5915 8.93319 17.4194C7.72202 16.2473 7.04159 14.6576 7.04159 13C7.04159 11.3424 7.72202 9.75268 8.93319 8.58058C10.1444 7.40848 11.7871 6.75 13.4999 6.75ZM13.4999 9.25C12.4722 9.25 11.4866 9.64509 10.7599 10.3483C10.0332 11.0516 9.62492 12.0054 9.62492 13C9.62492 13.9946 10.0332 14.9484 10.7599 15.6517C11.4866 16.3549 12.4722 16.75 13.4999 16.75C14.5276 16.75 15.5133 16.3549 16.24 15.6517C16.9667 14.9484 17.3749 13.9946 17.3749 13C17.3749 12.0054 16.9667 11.0516 16.24 10.3483C15.5133 9.64509 14.5276 9.25 13.4999 9.25Z" fill="#340600"/>
</svg>
